<svg width="55" height="68" viewBox="0 0 55 68" fill="none" xmlns="http://www.w3.org/2000/svg">
<path d="M5.00004 68.0001H49.4769C52.2384 68.0001 54.4769 65.7615 54.4769 63.0001L54.4769 5.00006C54.4769 2.23864 52.2384 6.10352e-05 49.4769 6.10352e-05H5.00004C2.23862 6.10352e-05 4.19617e-05 2.23864 4.19617e-05 5.00006L4.19617e-05 63.0001C4.19617e-05 65.7615 2.23862 68.0001 5.00004 68.0001Z" fill="#48C6C6"/>
<path d="M10.6866 15.5866L34.443 15.5866C35.6644 15.5866 36.6544 14.5966 36.6544 13.3753C36.6544 12.154 35.6644 11.1639 34.443 11.1639L10.6866 11.1639C9.46529 11.1639 8.47522 12.154 8.47522 13.3753C8.47522 14.5966 9.46529 15.5866 10.6866 15.5866Z" fill="white"/>
<path d="M10.6867 25.9774L42.7767 25.9774C43.998 25.9774 44.988 24.9874 44.988 23.766C44.988 22.5447 43.998 21.5547 42.7767 21.5547L10.6867 21.5547C9.46537 21.5547 8.4753 22.5447 8.4753 23.766C8.4753 24.9874 9.46537 25.9774 10.6867 25.9774Z" fill="white"/>
<path d="M10.6867 36.368L42.7767 36.368C43.998 36.368 44.988 35.378 44.988 34.1567C44.988 32.9354 43.998 31.9453 42.7767 31.9453L10.6867 31.9453C9.46537 31.9453 8.4753 32.9354 8.4753 34.1567C8.4753 35.378 9.46537 36.368 10.6867 36.368Z" fill="white"/>
<path d="M10.6867 46.7587L42.7767 46.7587C43.998 46.7587 44.988 45.7686 44.988 44.5473C44.988 43.326 43.998 42.3359 42.7767 42.3359L10.6867 42.3359C9.46537 42.3359 8.4753 43.326 8.4753 44.5473C8.4753 45.7686 9.46537 46.7587 10.6867 46.7587Z" fill="white"/>
<path d="M10.6867 57.1493L42.7767 57.1493C43.998 57.1493 44.988 56.1593 44.988 54.9379C44.988 53.7166 43.998 52.7266 42.7767 52.7266L10.6867 52.7266C9.46537 52.7266 8.4753 53.7166 8.4753 54.9379C8.4753 56.1593 9.46537 57.1493 10.6867 57.1493Z" fill="white"/>
</svg>
