<svg width="86" height="50" viewBox="0 0 86 50" fill="none" xmlns="http://www.w3.org/2000/svg">
<path d="M73.4608 22.8666C73.5744 21.9745 73.6535 21.0709 73.6535 20.1457C73.6535 9.01953 65.1752 0 54.7167 0C46.8706 0 40.1395 5.07616 37.2663 12.3098C34.9281 10.0949 31.8562 8.73789 28.479 8.73789C21.1707 8.73789 15.2461 15.0406 15.2461 22.8156H12.7767C5.7494 22.8156 0 28.932 0 36.4078V36.4079C0 43.8836 5.7494 50 12.7767 50H72.5177C79.5447 50 85.2941 43.8836 85.2941 36.4079V36.4078C85.2944 29.2705 80.0505 23.3861 73.4608 22.8666Z" fill="#48C6C6"/>
<path d="M56.4908 19.8286H30.4482V44.8912H56.4908V19.8286Z" fill="#7AD0FF"/>
<path d="M56.7179 27.3941H30.2213C29.7369 27.3941 29.3444 26.9765 29.3444 26.4612V20.7616C29.3444 20.2463 29.7369 19.8287 30.2213 19.8287H56.7179C57.2022 19.8287 57.5948 20.2463 57.5948 20.7616V26.4612C57.5948 26.9765 57.2022 27.3941 56.7179 27.3941Z" fill="white"/>
<path d="M33.3369 21.7577H30.5438V25.7656H33.3369V21.7577Z" fill="#7AD0FF"/>
<path d="M37.5266 21.7578H34.7335V25.7657H37.5266V21.7578Z" fill="#7AD0FF"/>
<path d="M41.7162 21.7578H38.9231V25.7657H41.7162V21.7578Z" fill="#7AD0FF"/>
<path d="M56.7179 36.3773H30.2213C29.7369 36.3773 29.3444 35.9597 29.3444 35.4444V29.7448C29.3444 29.2295 29.7369 28.8119 30.2213 28.8119H56.7179C57.2022 28.8119 57.5948 29.2295 57.5948 29.7448V35.4444C57.5948 35.9597 57.2022 36.3773 56.7179 36.3773Z" fill="white"/>
<path d="M33.3369 30.7407H30.5438V34.7486H33.3369V30.7407Z" fill="#7AD0FF"/>
<path d="M37.5266 30.7406H34.7335V34.7486H37.5266V30.7406Z" fill="#7AD0FF"/>
<path d="M41.7162 30.7406H38.9231V34.7486H41.7162V30.7406Z" fill="#7AD0FF"/>
<path d="M56.7179 45.3607H30.2213C29.7369 45.3607 29.3444 44.9431 29.3444 44.4278V38.7283C29.3444 38.213 29.7369 37.7954 30.2213 37.7954H56.7179C57.2022 37.7954 57.5948 38.213 57.5948 38.7283V44.4278C57.5948 44.9431 57.2022 45.3607 56.7179 45.3607Z" fill="white"/>
<path d="M33.3369 39.7244H30.5438V43.7324H33.3369V39.7244Z" fill="#7AD0FF"/>
<path d="M37.5266 39.7245H34.7335V43.7325H37.5266V39.7245Z" fill="#7AD0FF"/>
<path d="M41.7162 39.7245H38.9231V43.7325H41.7162V39.7245Z" fill="#7AD0FF"/>
</svg>
