<svg width="60" height="68" viewBox="0 0 60 68" fill="none" xmlns="http://www.w3.org/2000/svg">
<path d="M57.398 4.23376H55.1644V14.5829H57.398V4.23376Z" fill="#241F3C"/>
<path d="M57.6361 11.4247H55.0181C54.5533 11.8049 54.2571 12.3829 54.2583 13.0302L54.2632 14.924L58.4007 14.9165L58.3959 13.0228C58.3947 12.3781 58.0989 11.8032 57.6361 11.4247Z" fill="#48C6C6"/>
<path d="M54.1715 15.5402C53.4382 15.5402 52.9303 16.2727 53.188 16.9594L55.2929 22.5718C55.3499 22.7234 55.5084 22.8114 55.6671 22.7795C55.8361 22.7456 55.9506 22.5875 55.93 22.4165L55.2144 16.4651C55.151 15.9373 54.7031 15.5402 54.1715 15.5402Z" fill="#241F3C"/>
<path d="M58.5768 15.5402C59.3102 15.5402 59.818 16.2727 59.5603 16.9594L57.4554 22.5718C57.3985 22.7234 57.24 22.8114 57.0813 22.7795C56.9123 22.7456 56.798 22.5875 56.8184 22.4165L57.534 16.4651C57.5974 15.9373 58.0452 15.5402 58.5768 15.5402Z" fill="#241F3C"/>
<path d="M58.7908 14.9155H53.9008V15.5087H58.7908V14.9155Z" fill="#241F3C"/>
<path d="M55.232 15.5707C55.232 15.8352 55.0176 16.0496 54.7531 16.0496C54.4886 16.0496 54.2742 15.8352 54.2742 15.5707C54.2742 15.3062 54.4886 15.0917 54.7531 15.0917C55.0176 15.0917 55.232 15.3062 55.232 15.5707Z" fill="#241F3C"/>
<path d="M58.4003 15.5707C58.4003 15.8352 58.1858 16.0496 57.9213 16.0496C57.6568 16.0496 57.4424 15.8352 57.4424 15.5707C57.4424 15.3062 57.6568 15.0917 57.9213 15.0917C58.1858 15.0917 58.4003 15.3062 58.4003 15.5707Z" fill="#241F3C"/>
<path d="M56.2518 2.51984H45.6006V5.94667H56.2518V2.51984Z" fill="#241F3C"/>
<path d="M46.8972 7.9843H39.9971C37.9255 7.9843 36.246 6.3048 36.246 4.23319C36.246 2.16158 37.9255 0.482086 39.9971 0.482086H46.8972V7.9843Z" fill="#48C6C6"/>
<path d="M55.835 7.98433H50.9724V0.482117H55.835C57.9066 0.482117 59.5862 2.16162 59.5862 4.23322C59.5862 6.30483 57.9066 7.98433 55.835 7.98433Z" fill="#48C6C6"/>
<path d="M56.7199 6.02377C55.7145 6.44516 54.554 5.97006 54.1326 4.96494C53.7112 3.95963 54.1863 2.79905 55.1914 2.37766C56.1967 1.95627 57.3573 2.43137 57.7787 3.43649C58.2001 4.4416 57.725 5.60238 56.7199 6.02377ZM55.513 3.14492C54.9309 3.38883 54.6559 4.06099 54.8998 4.6431C55.1437 5.22521 55.8159 5.50022 56.398 5.25631C56.9801 5.0124 57.2551 4.34023 57.0112 3.75812C56.7671 3.17601 56.0951 2.90101 55.513 3.14492Z" fill="#241F3C"/>
<path d="M26.2239 19.9937L20.2766 10.7884L18.3552 12.0298L24.3024 21.2351L26.2239 19.9937Z" fill="#241F3C"/>
<path d="M7.33228 25.6254C6.43983 24.2381 6.84103 22.39 8.22836 21.4978L23.597 11.6029L26.8286 16.6269L11.4599 26.5217C10.0726 27.414 8.22452 27.0128 7.33228 25.6254Z" fill="#241F3C"/>
<path d="M25.5026 21.3886L42.1294 9.07584C44.2663 7.49347 44.8029 4.52174 43.3548 2.29183C41.9067 0.0619202 38.9736 -0.656487 36.6591 0.6521L18.6825 10.8319L25.5026 21.3886Z" fill="#48C6C6"/>
<path d="M40.8746 7.75151C39.3816 8.72089 37.3785 8.29526 36.4091 6.80233C35.4395 5.3094 35.8654 3.30623 37.3583 2.33685C38.851 1.36728 40.8544 1.79311 41.8238 3.28604C42.7934 4.77897 42.3675 6.78214 40.8746 7.75151ZM38.0985 3.47665C37.2341 4.03796 36.9876 5.19793 37.5489 6.06232C38.1102 6.9267 39.2702 7.17324 40.1346 6.61193C40.999 6.05062 41.2455 4.89063 40.6842 4.02625C40.1227 3.16186 38.9629 2.91533 38.0985 3.47665Z" fill="#241F3C"/>
<path d="M31.9704 51.4076C27.9249 54.9156 21.8018 54.4798 18.2938 50.4345L2.37064 32.0723C-1.13737 28.027 -0.701825 21.9037 3.34367 18.3957C7.38916 14.8877 13.5123 15.3234 17.0203 19.3687L32.9434 37.7309C36.4514 41.7762 36.0157 47.8995 31.9704 51.4076Z" fill="#48C6C6"/>
<path d="M5.97797 21.4337C3.84821 23.2806 3.61904 26.5045 5.46592 28.6343C7.31281 30.764 10.5367 30.9938 12.6665 29.1469C14.7966 27.2998 15.0256 24.0759 13.1787 21.9461C11.3318 19.8162 8.10814 19.5864 5.97797 21.4337ZM11.3222 27.5964C10.0487 28.7007 8.12085 28.5636 7.01619 27.2897C5.91154 26.0159 6.04884 24.0882 7.32229 22.9838C8.59615 21.8791 10.5238 22.0164 11.6285 23.2901C12.7331 24.5641 12.596 26.492 11.3222 27.5964Z" fill="#241F3C"/>
<path d="M35.4654 53.184H17.847V45.6258C17.847 40.7606 21.791 36.8167 26.6562 36.8167C31.5213 36.8167 35.4654 40.7606 35.4654 45.6258V53.184Z" fill="#241F3C"/>
<path d="M24.1295 42.4702C22.4577 43.9199 22.278 46.4502 23.7277 48.1221C25.1775 49.7939 27.7078 49.974 29.3797 48.5245C31.0517 47.0745 31.2314 44.5442 29.7819 42.8724C28.3319 41.2005 25.8016 41.0204 24.1295 42.4702ZM28.3243 47.3075C27.3246 48.1744 25.8115 48.0667 24.9445 47.0669C24.0775 46.067 24.1851 44.5539 25.1848 43.6871C26.1846 42.8201 27.6977 42.9277 28.5647 43.9276C29.4318 44.9274 29.3241 46.4405 28.3243 47.3075Z" fill="#48C6C6"/>
<path d="M43.704 61.7486H10.0795V57.0425C10.0795 54.6652 12.0067 52.7379 14.384 52.7379H39.3992C41.7767 52.7379 43.704 54.6652 43.704 57.0425V61.7486Z" fill="#312A52"/>
<path d="M49.1738 58.9891H4.55566V68H49.1738V58.9891Z" fill="#241F3C"/>
</svg>
