<svg width="38" height="68" viewBox="0 0 38 68" fill="none" xmlns="http://www.w3.org/2000/svg">
<path d="M29.5785 21.1471C30.6343 21.1471 31.4903 20.2911 31.4903 19.2353C31.4903 18.1795 30.6343 17.3235 29.5785 17.3235C28.5227 17.3235 27.6667 18.1795 27.6667 19.2353C27.6667 20.2911 28.5227 21.1471 29.5785 21.1471Z" fill="#AAE0FF"/>
<path d="M22.8116 13.2432L22 12.3194C26.5515 7.75041 33.646 7.91916 37.9743 12.6958L37.1186 13.5788C33.2379 9.31149 26.8911 9.16106 22.8116 13.2432Z" fill="#AAE0FF"/>
<path d="M24.4972 15.1614L23.6855 14.2376C27.2568 10.6794 32.7988 10.8102 36.1975 14.5295L35.3417 15.4126C32.3909 12.2024 27.5964 12.0898 24.4972 15.1614Z" fill="#AAE0FF"/>
<path d="M26.1285 17.0186L25.3169 16.0948C27.9397 13.5144 31.9778 13.6085 34.4769 16.3049L33.6211 17.1879C31.5701 15.0004 28.279 14.9245 26.1285 17.0186Z" fill="#AAE0FF"/>
<path d="M17.3579 7.54262H3.77131C1.68843 7.54262 0 5.85409 0 3.77131C0 1.68843 1.68853 0 3.77131 0H17.3579C19.4408 0 21.1293 1.68853 21.1293 3.77131C21.1293 5.85409 19.4408 7.54262 17.3579 7.54262Z" fill="#48C6C6"/>
<path d="M11.6568 12.215H9.12573V23.5119H11.6568V12.215Z" fill="#241F3C"/>
<path d="M23.2215 36.1235L15.656 44.5125L17.5356 46.2076L25.1011 37.8185L23.2215 36.1235Z" fill="#241F3C"/>
<path d="M13.5037 48.9043L10.9729 48.9316L11.0548 56.518L13.5857 56.4907L13.5037 48.9043Z" fill="#241F3C"/>
<path d="M10.3911 15.2425C8.99458 15.2425 7.86255 14.1105 7.86255 12.7139V4.53181C7.86255 3.13529 8.99458 2.00327 10.3911 2.00327C11.7876 2.00327 12.9196 3.13529 12.9196 4.53181V12.7139C12.9196 14.1105 11.7876 15.2425 10.3911 15.2425Z" fill="#48C6C6"/>
<path d="M9.80999 11.3459C9.06249 11.6686 8.71693 12.5393 9.03961 13.2867C9.3623 14.0342 10.233 14.3797 10.9804 14.0571C11.7279 13.7344 12.0734 12.8637 11.7508 12.1163C11.4281 11.3687 10.5575 11.0231 9.80999 11.3459Z" fill="#241F3C"/>
<path d="M3.01856 1.91507C2.03775 2.32622 1.57427 3.45866 1.98542 4.43947C2.39657 5.42028 3.529 5.88376 4.50981 5.47261C5.49062 5.06146 5.9541 3.92902 5.54295 2.94821C5.1318 1.9674 3.99937 1.50392 3.01856 1.91507Z" fill="#241F3C"/>
<path d="M16.5929 2.01798C15.6165 2.43955 15.1651 3.57685 15.5867 4.5532C16.0083 5.52956 17.1456 5.981 18.1219 5.55942C19.0983 5.13784 19.5497 4.00055 19.1282 3.02419C18.7066 2.04773 17.5693 1.5964 16.5929 2.01798Z" fill="#241F3C"/>
<path d="M21.4604 39.5261L8.43729 27.6106C6.44075 25.7839 6.30309 22.6846 8.12979 20.6881C9.95649 18.6916 13.0558 18.5539 15.0522 20.3806L28.0755 32.2961C30.0719 34.1228 30.2096 37.2221 28.383 39.2185C26.5563 41.2151 23.4569 41.3527 21.4604 39.5261Z" fill="#48C6C6"/>
<path d="M12.651 21.5564C11.3504 21.0903 9.91296 21.7694 9.44685 23.07C8.98073 24.3707 9.65981 25.8081 10.9605 26.2742C12.2612 26.7403 13.6986 26.0612 14.1647 24.7606C14.6308 23.4599 13.9518 22.0225 12.651 21.5564Z" fill="#241F3C"/>
<path d="M25.572 33.5596C24.2664 33.1074 22.8364 33.8016 22.3841 35.1072C21.9318 36.4129 22.6261 37.8429 23.9317 38.2951C25.2373 38.7474 26.6674 38.0531 27.1197 36.7476C27.5719 35.442 26.8777 34.0118 25.572 33.5596Z" fill="#241F3C"/>
<path d="M20.6818 44.9003L14.3293 52.0004C13.3554 53.0889 11.6835 53.1817 10.5951 52.2079C9.50658 51.2341 9.41376 49.5621 10.3876 48.4737L16.7402 41.3737C17.7141 40.2851 19.3859 40.1923 20.4743 41.1662C21.5629 42.14 21.6557 43.8118 20.6818 44.9003Z" fill="#48C6C6"/>
<path d="M11.2866 49.849C11.0906 50.4157 11.3923 51.0362 11.959 51.2323C12.5257 51.4282 13.1462 51.1266 13.3423 50.56C13.5382 49.9933 13.2366 49.3727 12.67 49.1767C12.1031 48.9807 11.4827 49.2823 11.2866 49.849Z" fill="#241F3C"/>
<path d="M17.8584 42.6841C17.6624 43.2508 17.964 43.8713 18.5307 44.0674C19.0974 44.2634 19.7179 43.9617 19.9139 43.3951C20.1099 42.8283 19.8084 42.2079 19.2416 42.0118C18.6749 41.8158 18.0543 42.1173 17.8584 42.6841Z" fill="#241F3C"/>
<path d="M13.4658 60.5587H10.9641V61.6094H13.4658V60.5587Z" fill="#241F3C"/>
<path d="M12.967 61.1614H11.4631V62.7318H12.967V61.1614Z" fill="#241F3C"/>
<path d="M13.4658 60.5587H10.9641V61.6094H13.4658V60.5587Z" fill="#241F3C"/>
<path d="M13.5245 63.0773H13.5263L13.5245 63.0763V63.0756H13.5232L13.3374 62.895C13.0554 62.6211 12.6778 62.4679 12.2846 62.4679C11.8915 62.4679 11.5138 62.6211 11.2318 62.895L11.046 63.0756H11.0448V63.0763L11.043 63.0773H11.0448V64.3207H11.0442L11.2343 64.5024C11.5155 64.7711 11.8894 64.9211 12.2783 64.9211H12.2912C12.6802 64.9211 13.0541 64.7711 13.3353 64.5024L13.5254 64.3207H13.5248V63.0773H13.5245Z" fill="#241F3C"/>
<path d="M13.0001 64.1365H11.5691V65.1407H13.0001V64.1365Z" fill="#241F3C"/>
<path d="M11.9919 63.4318V67.7226L12.2747 68L12.575 67.7226V63.4318H11.9919Z" fill="#241F3C"/>
<path d="M13.7259 61.079H10.7048L9.15552 59.392H15.275L13.7259 61.079Z" fill="#48C6C6"/>
<path d="M10.5942 54.5923H13.8363L15.4988 55.7384H8.93164L10.5942 54.5923Z" fill="#48C6C6"/>
<path d="M15.6981 55.5064H8.73193V59.4915H15.6981V55.5064Z" fill="#241F3C"/>
</svg>
